<svg width="48" height="48" viewBox="0 0 48 48" fill="none" xmlns="http://www.w3.org/2000/svg">
<circle cx="24" cy="24" r="24" fill="white"/>
<path d="M24 29C26.7614 29 29 26.7614 29 24C29 21.2386 26.7614 19 24 19C21.2386 19 19 21.2386 19 24C19 26.7614 21.2386 29 24 29Z" stroke="#0D324D" stroke-width="2" stroke-linecap="round" stroke-linejoin="round"/>
<path d="M29 24V25.875C29 26.7038 29.3292 27.4987 29.9153 28.0847C30.5013 28.6708 31.2962 29 32.125 29C32.9538 29 33.7487 28.6708 34.3347 28.0847C34.9208 27.4987 35.25 26.7038 35.25 25.875V24C35.2531 21.5826 34.4775 19.2286 33.038 17.2865C31.5985 15.3444 29.5718 13.9177 27.258 13.2176C24.9442 12.5176 22.4665 12.5814 20.1918 13.3997C17.9171 14.218 15.9666 15.7472 14.629 17.7609C13.2915 19.7745 12.6381 22.1654 12.7657 24.5794C12.8933 26.9934 13.7951 29.3021 15.3374 31.1635C16.8798 33.0249 18.9807 34.3399 21.329 34.9139C23.6772 35.4878 26.1479 35.2901 28.375 34.35" stroke="#0D324D" stroke-width="2" stroke-linecap="round" stroke-linejoin="round"/>
</svg>