<svg width="48" height="48" viewBox="0 0 48 48" fill="none" xmlns="http://www.w3.org/2000/svg">
<circle cx="24" cy="24" r="24" fill="white"/>
<path d="M24 9.37125C15.7125 9.37125 9 16.0875 9 24.3712C9 31 13.2975 36.6212 19.2563 38.6025C20.0063 38.7437 20.2812 38.28 20.2812 37.8812C20.2812 37.525 20.2688 36.5812 20.2625 35.3312C16.09 36.2362 15.21 33.3187 15.21 33.3187C14.5275 31.5875 13.5412 31.125 13.5412 31.125C12.1825 30.195 13.6462 30.2137 13.6462 30.2137C15.1525 30.3187 15.9437 31.7587 15.9437 31.7587C17.2812 34.0525 19.455 33.39 20.3125 33.0062C20.4475 32.0362 20.8338 31.375 21.2625 31C17.9313 30.625 14.43 29.335 14.43 23.5875C14.43 21.95 15.0113 20.6125 15.9738 19.5625C15.805 19.1837 15.2987 17.6587 16.105 15.5925C16.105 15.5925 17.3612 15.19 20.23 17.13C21.43 16.7962 22.705 16.6312 23.98 16.6237C25.255 16.6312 26.53 16.7962 27.73 17.13C30.58 15.19 31.8362 15.5925 31.8362 15.5925C32.6425 17.6587 32.1362 19.1837 31.9862 19.5625C32.9425 20.6125 33.5238 21.95 33.5238 23.5875C33.5238 29.35 30.0175 30.6187 26.68 30.9875C27.205 31.4375 27.6925 32.3575 27.6925 33.7625C27.6925 35.77 27.6737 37.3825 27.6737 37.87C27.6737 38.2637 27.9363 38.7325 28.705 38.5825C34.7062 36.615 39 30.99 39 24.3712C39 16.0875 32.2838 9.37125 24 9.37125Z" fill="#0D324D"/>
</svg>