<svg width="48" height="48" viewBox="0 0 48 48" fill="none" xmlns="http://www.w3.org/2000/svg">
<circle cx="24" cy="24" r="24" fill="white"/>
<path d="M35.9987 35H31.239V27.5301C31.239 25.7488 31.2029 23.4564 28.7588 23.4564C26.2772 23.4564 25.8982 25.3946 25.8982 27.3986V35H21.1385V19.6389H25.7107V21.7328H25.7723C26.4111 20.5256 27.9646 19.2513 30.2855 19.2513C35.1081 19.2513 36 22.4303 36 26.5683V35H35.9987ZM15.7628 17.5371C14.2308 17.5371 13 16.295 13 14.7672C13 13.2407 14.2321 12 15.7628 12C17.2896 12 18.527 13.2407 18.527 14.7672C18.527 16.295 17.2882 17.5371 15.7628 17.5371ZM18.1494 35H13.3763V19.6389H18.1494V35Z" fill="#0D324D"/>
</svg>