<svg width="48" height="48" viewBox="0 0 48 48" fill="none" xmlns="http://www.w3.org/2000/svg">
<circle cx="24" cy="24" r="24" fill="white"/>
<path d="M15.5525 26.2113L9 20.875L24 9L39 20.875L32.4475 26.2113C30.935 23.0613 27.7225 20.875 24 20.875C20.2787 20.875 17.065 23.06 15.5525 26.2113ZM24 21.5C21.6794 21.5 19.4538 22.4219 17.8128 24.0628C16.1719 25.7038 15.25 27.9294 15.25 30.25C15.25 32.5706 16.1719 34.7962 17.8128 36.4372C19.4538 38.0781 21.6794 39 24 39C26.3206 39 28.5462 38.0781 30.1872 36.4372C31.8281 34.7962 32.75 32.5706 32.75 30.25C32.75 27.9294 31.8281 25.7038 30.1872 24.0628C28.5462 22.4219 26.3206 21.5 24 21.5Z" fill="#0D324D"/>
</svg>